<svg width="103" height="103" viewBox="0 0 103 103" fill="none" xmlns="http://www.w3.org/2000/svg">
<g clip-path="url(#clip0_300_2100)">
<path d="M57.4574 0.0501783L96.4622 0C99.7204 0.580061 102.188 3.04482 102.77 6.32247L102.674 40.7528C101.839 42.5974 100.125 43.3741 98.2245 42.5913C94.6758 41.1281 88.3196 34.8599 84.9932 34.3762L58.2124 34.322C54.8801 33.9888 51.8401 31.1928 51.5037 27.7988C50.8288 20.9806 51.9903 13.0725 51.5197 6.13982C52.1826 3.05686 54.3954 0.788803 57.4594 0.0501783H57.4574Z" fill="white"/>
<path d="M45.071 8.65277C45.3794 14.5477 44.7366 20.7437 45.085 26.6046C45.4034 31.9636 47.8186 36.5539 52.7029 38.9424C50.7284 41.4232 47.5062 42.7118 44.3901 42.9506C35.807 43.609 26.4688 42.4248 17.8055 43.0008C13.1275 45.0521 9.16229 48.6208 4.75055 51.1919C3.04033 51.768 1.13184 51.2361 0.424925 49.4859C-0.021656 38.0854 0.368852 26.5845 0.226667 15.1479C0.61317 11.4166 3.85939 8.66482 7.53618 8.42396C19.3936 8.94581 31.8058 7.75558 43.5991 8.42195C44.1058 8.45005 44.5844 8.52231 45.071 8.65277Z" fill="white"/>
<path d="M1.10315 102.095C0.632538 101.647 0.302108 100.908 0.232017 100.258C-0.727231 91.3746 0.952954 82.8142 11.1382 81.4834C19.3168 81.933 28.0782 80.9134 36.1868 81.4834C41.2293 81.8387 45.6151 85.309 46.8767 90.2385C47.4374 92.4343 47.5816 97.972 47.2752 100.242C47.103 101.517 46.1137 102.51 44.9442 102.924L3.12578 102.98C2.49296 102.98 1.55173 102.524 1.10315 102.097V102.095Z" fill="white"/>
<path d="M101.893 102.091C101.637 102.348 101.197 102.583 100.878 102.781C86.6477 103.183 72.319 102.906 58.0545 102.922C56.885 102.508 55.8957 101.515 55.7234 100.24C55.415 97.9703 55.5592 92.4326 56.122 90.2368C57.3796 85.3254 61.7773 81.835 66.8119 81.4817C74.9204 80.9117 83.6818 81.9333 91.8605 81.4817C102.046 82.8104 103.726 91.3709 102.767 100.256C102.693 100.941 102.376 101.605 101.893 102.091Z" fill="white"/>
<path d="M71.0566 54.5256C81.7725 44.801 97.4929 58.4114 90.4538 70.8556C84.5561 81.2847 68.6534 78.5108 66.5787 66.6788C65.7136 61.7392 67.4759 57.7731 71.0566 54.5256Z" fill="white"/>
<path d="M31.9433 54.526C45.1244 66.4885 28.1303 84.7253 15.556 74.4628C2.2907 63.6343 19.2007 42.9629 31.9433 54.526Z" fill="white"/>
</g>
<defs>
<clipPath id="clip0_300_2100">
<rect width="103" height="103" fill="white"/>
</clipPath>
</defs>
</svg>
