<svg width="75" height="38" viewBox="0 0 75 38" fill="none" xmlns="http://www.w3.org/2000/svg">
<path d="M70.1962 19.8175C70.2092 19.9091 70.6874 20.1874 70.5215 20.3052C70.0433 20.2659 69.5033 20.3903 69.0414 20.3248C68.5795 20.2594 68.1208 20.3379 67.9646 19.7716C67.3986 14.881 68.5599 8.82822 67.9354 4.08815C67.8475 3.42035 67.7499 2.94241 67.0408 2.6969L2.93669 3.03407C2.5691 3.54147 2.5691 4.1438 2.52031 4.74285C2.01283 11.0018 1.91524 23.4773 2.5138 29.6544C2.57886 30.3157 2.50079 30.8918 3.18067 31.2748L58.2966 31.4188L59.1327 33.7299H3.02127C1.60946 33.7299 0.366804 31.6742 0.239936 30.3091C-0.527777 21.8994 0.844999 12.3178 0.256202 3.77716C0.568492 1.02085 2.45199 0.215565 4.96333 -0.000488281H65.8176C67.7434 0.166462 69.3081 0.598567 70.1962 2.46775C70.7265 7.85271 69.4838 14.606 70.1962 19.8175Z" fill="#063439"/>
<path d="M66.5346 22.3521C75.038 20.902 78.5838 33.433 70.2886 36.6018C59.9961 40.5333 56.2844 24.0969 66.5346 22.3521ZM70.0024 30.6604C69.7486 30.333 69.5046 29.9926 69.2965 29.6325C69.3062 29.3804 72.3185 27.0333 70.6595 26.5455C69.2997 26.2738 68.6914 27.7535 67.761 28.4867C65.0447 24.9971 63.1515 26.9089 66.616 29.639C63.1482 32.3724 65.048 34.2776 67.761 30.7913L70.3212 33.0566C72.042 31.8617 70.6432 31.4918 70.0024 30.6636V30.6604Z" fill="#063439"/>
<path d="M17.498 23.9097V9.8335H22.2149C24.2676 9.8335 25.6631 15.3592 23.3763 16.5901C27.0652 21.8703 22.8818 24.8197 17.498 23.9097ZM19.4499 15.3985C22.0751 15.955 22.9826 14.2855 21.4049 12.2854L19.4499 12.1217V15.3985ZM19.4499 21.6182C23.643 22.2794 23.3145 17.4903 19.4499 18.014V21.6182Z" fill="#063439"/>
<path d="M13.5994 23.9068L12.965 20.7806L10.2162 20.6169L9.33465 23.8774L7.41211 23.9101L10.0178 10.0794C10.3626 9.27743 12.5161 9.64079 12.8967 10.3741C13.5994 14.2401 15.3625 18.6921 15.8049 22.5287C16.0066 24.28 14.9884 23.9232 13.5961 23.9068H13.5994ZM12.2949 18.0177C12.3632 17.4514 12.2428 16.9178 12.1485 16.3646C12.0542 15.8114 11.82 14.3481 11.3222 14.0928L10.6684 18.0177H12.2949Z" fill="#063439"/>
<path d="M48.0754 23.9096C47.1223 20.2335 54.5196 16.3249 52.7923 12.7796C52.3987 11.9744 51.1885 11.8696 50.6453 12.5865C49.8678 13.6177 51.2536 14.4557 48.3975 14.0891C47.6655 7.76788 56.247 8.34402 55.1507 14.8289C54.7213 17.3691 52.1449 19.6311 50.6746 21.6149H55.2288V23.9064H48.0722L48.0754 23.9096Z" fill="#063439"/>
<path d="M34.4155 13.7623C31.6829 14.6364 32.5515 11.2221 30.1898 12.2958C28.2835 13.1633 28.3193 21.3111 30.359 21.6384C32.3986 21.9658 32.07 19.1244 34.4155 19.9853C34.9717 23.9299 29.4839 25.5929 27.6329 22.3913C26.4911 20.4207 26.5529 13.1665 27.8346 11.2352C29.9816 8.00091 34.7213 10.1451 34.4155 13.7656V13.7623Z" fill="#063439"/>
<path d="M56.5342 20.3091C58.5804 19.9228 58.1347 20.5546 58.961 21.2977C61.4918 23.5696 62.8386 17.9587 59.7677 17.4873L59.8393 15.4414C62.1034 15.2613 62.0969 11.2349 59.3513 12.1744C58.756 12.3774 58.3624 14.1418 56.5342 13.4314C55.9324 8.92051 63.2712 8.34437 63.6746 12.6523C63.821 14.2105 63.0761 15.2057 62.4222 16.4922C66.0558 20.368 62.201 21.9197 59.3644 24.1686C57.6012 23.7529 56.2577 22.1816 56.5342 20.3026V20.3091Z" fill="#063439"/>
<path d="M46.449 9.83417V23.7467C45.9968 24.421 44.7184 24.3163 44.1719 23.7467V12.453C43.2675 12.6756 42.682 13.8639 41.7516 13.7788C40.9807 13.71 40.3301 12.8785 40.7399 12.1224C41.3027 11.0814 45.1413 9.2613 46.449 9.83417Z" fill="#063439"/>
<path d="M11.5956 29.4255C11.2963 29.9067 5.81498 30.6826 6.7974 27.7167C7.1227 26.7412 10.187 27.2879 11.1077 27.2257L11.5924 27.7167V29.4255H11.5956Z" fill="#063439"/>
<path d="M7.1391 7.16579L6.81055 5.4832C7.27248 3.7024 13.7297 4.29164 11.111 7.16579H7.14236H7.1391Z" fill="#063439"/>
<path d="M64.295 4.96894C64.5292 5.34867 64.4641 7.02471 63.8103 7.16875C62.7368 7.15238 59.8383 7.70561 59.5098 6.32745L59.7668 5.14243C60.3165 4.30114 63.9989 4.48445 64.295 4.96566V4.96894Z" fill="#063439"/>
<path d="M35.7148 18.0174L35.858 16.0303C36.3101 15.3658 39.6575 15.8863 40.5976 15.7226V18.0174H35.7148Z" fill="#063439"/>
</svg>
