<svg width="68" height="35" viewBox="0 0 68 35" fill="none" xmlns="http://www.w3.org/2000/svg">
<path d="M61.0125 23.054C62.0276 13.4885 49.2937 13.4664 49.388 22.7373H18.273C18.9141 13.2447 6.00105 13.6215 6.96269 23.054C3.64094 23.4814 -0.780714 22.4999 0.118074 18.2127C0.259491 17.5446 0.84716 17.0158 0.969722 16.2242C1.26513 14.3624 0.385196 9.81242 1.59825 8.62505C2.61017 7.63399 5.66165 7.83347 7.0444 7.46301C8.98339 6.94374 10.8187 1.16521 12.8362 0H37.5309C41.5566 2.05177 45.3403 6.25031 49.4791 7.90946C53.6179 9.56861 61.7762 9.54961 65.4153 12.4341C67.2915 13.9191 67.4926 18.7383 66.8389 20.847C66.2575 22.7183 62.6875 23.2883 61.0062 23.0476L61.0125 23.054ZM25.4978 8.48573C25.0516 7.11788 25.4947 4.38218 25.1427 3.30564C25.0076 2.88768 24.7813 2.85602 24.4011 2.78636C23.5526 2.62804 14.6401 2.65021 14.0807 2.83702L10.7338 7.69732L25.4978 8.48573ZM36.343 2.78636C34.0897 2.32408 30.438 3.12832 28.0151 2.78636L28.3293 8.4889C33.9326 8.42874 39.5422 9.01767 45.1423 9.12216L45.2994 8.49207C42.8545 7.82081 38.3983 3.20748 36.3461 2.78636H36.343Z" fill="#063439"/>
<path d="M66.0387 30.9667V34.7694C61.0577 34.3071 55.0144 35.3805 50.1622 34.7757C48.9932 34.6301 48.3992 33.9398 47.0416 33.8037C42.9656 33.3952 23.4374 33.1609 20.1314 33.9525C19.286 34.1551 18.9655 34.6681 17.8184 34.7884C12.9411 35.3045 7.11156 34.3989 2.12737 34.7219C1.16887 34.4053 1.76911 31.8279 1.61198 30.9667H8.99712C10.295 30.9667 10.6439 27.8573 10.9173 27.7813C11.1624 27.7148 14.371 27.6737 14.4936 27.8035C14.8707 28.1961 13.777 30.6532 16.5331 30.973C27.1897 30.0833 39.7319 32.1445 50.1654 30.9667C53.4997 30.5899 51.9001 29.1112 52.8052 27.927C53.3803 27.1702 56.3406 27.4869 56.9314 27.9523C57.3588 28.2911 57.2614 30.9667 58.6536 30.9667H66.0387Z" fill="#063439"/>
<path d="M58.391 24.5299C54.2805 28.6429 48.7432 22.7726 52.3541 18.9223C55.9649 15.0721 62.0647 20.8506 58.391 24.5299Z" fill="#063439"/>
<path d="M11.5875 17.7406C16.1066 16.816 18.6238 22.7054 14.6044 25.2163C9.00113 28.7119 5.88052 18.9121 11.5875 17.7406Z" fill="#063439"/>
</svg>
