<svg width="55" height="37" viewBox="0 0 55 37" fill="none" xmlns="http://www.w3.org/2000/svg">
<g clip-path="url(#clip0_182_2548)">
<path d="M29.1587 30.0901C26.8019 30.0901 24.4452 30.0794 22.0884 30.0988C21.6182 30.1031 21.3691 29.9726 21.1525 29.541C20.2154 27.6725 18.6352 26.6627 16.4749 26.6486C11.575 26.6174 6.67411 26.6389 1.77317 26.6379C0.332184 26.6379 -0.106622 26.2171 0.0213163 24.8588C0.142521 23.5718 0.285049 22.2836 0.491546 21.0074C0.858527 18.7267 2.7473 16.8247 5.04794 16.3187C5.41493 16.2378 5.66295 16.2756 5.91882 16.5841C7.00854 17.8981 8.48208 18.4689 10.198 18.4742C14.7062 18.4872 19.2132 18.4915 23.7213 18.4699C24.297 18.4667 24.5383 18.6361 24.6696 19.1712C25.1309 21.0602 25.6516 22.9353 26.1241 24.8211C26.2307 25.2461 26.4215 25.3961 26.8872 25.3929C29.6738 25.3724 32.4615 25.3756 35.2481 25.3907C35.6353 25.3929 35.8642 25.258 36.0685 24.957C38.4241 21.4864 39.3971 17.6953 38.9785 13.5687C38.8495 12.2914 38.5644 11.0496 38.1335 9.84027C37.9808 9.41304 38.102 9.30084 38.5431 9.30624C39.8707 9.32242 41.1995 9.32674 42.5271 9.303C42.9424 9.29545 43.1736 9.44757 43.3643 9.7874C45.0275 12.7424 46.0982 15.8839 46.6335 19.1992C46.7031 19.6286 46.5572 19.7969 46.0892 19.8584C41.4632 20.4658 37.6341 24.2407 37.0987 28.6898C37.0797 28.8506 37.0437 29.0091 37.0224 29.1688C36.9416 29.7838 36.5836 30.0912 35.9484 30.0912C33.6848 30.0912 31.4223 30.0912 29.1587 30.0912V30.0901ZM9.46855 23.0334C10.2351 23.0334 11.0016 23.0442 11.7681 23.0302C12.4998 23.0173 12.9947 22.576 12.9936 21.9665C12.9936 21.3558 12.4998 20.9114 11.7658 20.9049C10.2328 20.893 8.6998 20.893 7.1679 20.9049C6.43731 20.9103 5.94127 21.358 5.94239 21.9675C5.94239 22.5771 6.43731 23.0173 7.17015 23.0302C7.93666 23.0431 8.70316 23.0334 9.46967 23.0334H9.46855Z" fill="#FF671F"/>
<path d="M16.9428 16.2798C14.6612 16.2798 12.3808 16.2981 10.0992 16.2744C7.76604 16.2507 6.34637 13.9236 7.50006 12.0216C8.0466 11.1208 8.88269 10.5706 9.98363 10.6148C12.3527 10.7086 14.7196 10.8672 17.0876 11.0021C18.4859 11.0819 19.8831 11.1661 21.2815 11.2535C22.25 11.3139 23.2264 11.3268 24.1848 11.4574C25.6145 11.6526 26.454 12.752 26.3339 14.1458C26.2318 15.3326 25.1365 16.2668 23.7853 16.2755C21.5048 16.2895 19.2232 16.2798 16.9417 16.2798H16.9428Z" fill="#FF671F"/>
<path d="M51.0126 26.644C50.2282 26.644 49.4437 26.6322 48.6593 26.6473C47.5213 26.6688 46.546 27.0454 45.8053 27.9095C45.5326 28.2278 45.2509 28.5406 44.9636 28.847C44.1938 29.668 43.2095 30.0478 42.0794 30.0834C41.3331 30.1071 40.5846 30.0737 39.8382 30.1017C39.377 30.119 39.2535 29.9248 39.2827 29.5235C39.4578 27.136 40.4835 25.1779 42.4554 23.7009C45.7425 21.239 50.2675 21.3512 53.3301 23.9674C53.9058 24.4594 54.3682 25.0452 54.798 25.658C55.0057 25.9536 54.9428 26.1132 54.6275 26.2923C54.1954 26.5372 53.7633 26.6732 53.2527 26.6516C52.5075 26.6203 51.759 26.643 51.0115 26.644H51.0126Z" fill="#FF671F"/>
<path d="M4.21858 28.8344C4.61137 28.8344 5.00416 28.8333 5.39696 28.8344C5.87429 28.8359 6.07742 29.0617 6.00635 29.5119C5.75272 31.1032 6.57309 32.5683 8.12182 33.1627C9.35294 33.6342 10.5639 33.5155 11.6199 32.7215C12.6681 31.9339 13.1226 30.8691 12.9375 29.5842C12.8297 28.8333 12.8174 28.8344 13.6299 28.8344C14.4525 28.8344 15.2763 28.8484 16.0978 28.829C16.5074 28.8193 16.6544 28.9811 16.687 29.3609C17.0573 33.6827 13.4761 37.2321 8.98147 36.9872C4.97274 36.7693 1.81693 33.1735 2.25461 29.3339C2.29389 28.9865 2.42969 28.8139 2.81575 28.8301C3.28261 28.8495 3.75059 28.8344 4.21746 28.8344H4.21858Z" fill="#FF671F"/>
<path d="M55 30.0146C54.7991 33.6211 52.4682 36.2039 48.9072 36.8318C45.8322 37.3744 42.4688 35.6602 41.1984 32.9037C40.9436 32.3503 40.9762 32.2888 41.5923 32.2942C42.4598 32.3006 43.3127 32.1949 44.1196 31.895C44.5405 31.7386 44.7795 31.8259 45.0724 32.1485C45.9938 33.1691 47.1744 33.5575 48.5514 33.2414C49.8544 32.9426 50.7163 32.1485 51.108 30.9122C51.2606 30.431 51.3672 29.9358 51.2101 29.4277C51.0788 29.0015 51.1944 28.8063 51.7095 28.8235C52.5669 28.8527 53.4311 28.8775 54.284 28.7599C54.7677 28.693 54.9876 28.8483 54.9618 29.3306C54.9484 29.5798 54.9876 29.8312 55 30.0135V30.0146Z" fill="#FF671F"/>
<path d="M39.9279 7.08814C39.0324 7.08814 38.1357 7.1 37.2401 7.08598C36.1526 7.06872 35.6353 6.50232 35.7295 5.4634C35.9944 2.54621 38.4611 0.228851 41.4946 0.0195557C41.9828 -0.0138884 42.462 0.00121537 42.9446 0.037896C43.7257 0.0993901 44.2206 0.507193 44.2431 1.26346C44.2868 2.78787 44.2879 4.31443 44.2464 5.83884C44.224 6.6361 43.6741 7.06764 42.7864 7.0849C41.8347 7.10324 40.8819 7.08921 39.9302 7.08921L39.9279 7.08814Z" fill="#FF671F"/>
<path d="M49.0711 3.58944C49.052 4.73841 48.2383 5.78812 47.106 6.15493C46.7132 6.28223 46.4921 6.23045 46.4932 5.78165C46.4966 4.29285 46.4977 2.80296 46.4921 1.31416C46.4898 0.891255 46.7076 0.840549 47.0701 0.940882C48.2069 1.2559 49.0913 2.41998 49.0711 3.58944Z" fill="#FF671F"/>
<path d="M32.3785 3.49417C32.7231 3.53624 33.3392 3.28595 33.6467 3.5945C33.9475 3.89442 33.5726 4.4306 33.5266 4.86646C33.4155 5.92372 33.4076 5.92372 32.3033 5.92372C31.8735 5.92372 31.4426 5.9399 31.015 5.91293C30.2788 5.86654 29.7603 5.35409 29.7592 4.70679C29.758 4.0584 30.2743 3.54487 31.0116 3.49848C31.4201 3.47259 31.8331 3.49417 32.3785 3.49417Z" fill="#FF671F"/>
<path d="M9.49323 28.8376C10.1767 28.8484 10.7457 29.4104 10.7232 30.0513C10.7008 30.6996 10.106 31.2455 9.44049 31.2294C8.76937 31.2132 8.19926 30.6435 8.20936 30.0006C8.22058 29.3576 8.80641 28.8268 9.49323 28.8376Z" fill="#FF671F"/>
<path d="M49.0082 30.0275C49.006 30.6974 48.4639 31.225 47.7726 31.2293C47.1127 31.2347 46.5303 30.6672 46.5303 30.0199C46.5303 29.3575 47.0813 28.8364 47.7805 28.8364C48.4875 28.8364 49.0116 29.3446 49.0082 30.0264V30.0275Z" fill="#FF671F"/>
</g>
<defs>
<clipPath id="clip0_182_2548">
<rect width="55" height="37" fill="white"/>
</clipPath>
</defs>
</svg>
