<svg width="66" height="44" viewBox="0 0 66 44" fill="none" xmlns="http://www.w3.org/2000/svg">
<path d="M15.1774 17.0468C14.6479 17.1973 11.1223 23.4385 11.4645 23.7683C16.5722 23.8708 21.7024 23.6434 26.8133 23.7555C27.5784 23.7715 28.2823 24.0854 29.0475 24.1014C34.8266 24.2263 40.5671 24.1942 46.3334 24.4056C45.8394 23.2816 39.5533 20.0121 39.5598 19.4453C41.0094 18.4334 40.622 16.3519 42.7012 17.2902C45.3777 18.4942 48.193 22.1768 51.0536 23.4129C54.2628 24.7995 62.6475 25.8146 64.7461 28.4052C66.0601 30.0288 66.1505 35.7096 65.0625 37.3812C63.8065 39.3121 61.6563 39.2417 59.5706 39.1424C60.2228 29.6317 46.6433 29.6989 46.9823 39.1424H18.8903C19.5844 33.6025 12.8431 29.6317 8.54586 33.5224C6.85731 35.0531 6.71848 36.9393 6.30845 39.0015C3.52862 38.8446 0.639028 37.9095 0.193482 34.7905C-0.0615776 33.0005 -0.0551204 27.9889 0.157967 26.1668C0.529256 23.035 5.41089 23.922 7.58374 22.3241C9.48216 20.9279 11.5033 15.0806 14.028 14.3056C14.6899 14.1039 17.5892 13.8221 18.3995 13.8189C19.9138 13.8125 21.3537 14.3857 22.8905 14.1423C23.0455 14.184 23.6815 16.496 23.7332 16.8867C23.8623 17.8794 23.3619 17.0468 23.2489 17.0468H15.1774Z" fill="#063439"/>
<path d="M33.0351 0.141699C36.1281 4.49998 42.7015 10.8917 39.2985 16.6302C36.7027 21.0109 30.3263 21.9363 26.7554 18.2121C22.5195 13.7962 25.7933 8.73017 28.444 4.58324C29.2156 3.37599 31.382 -0.818981 33.0351 0.141699Z" fill="#063439"/>
<path d="M56.5552 35.0881C58.6635 37.1728 58.4181 40.4391 56.0257 42.1907C52.0029 45.1336 46.553 40.564 49.2941 36.1544C50.8987 33.5734 54.3114 32.8689 56.5552 35.0881Z" fill="#063439"/>
<path d="M9.31603 35.0881C13.5455 30.8931 20.0769 37.4001 16.1155 41.6719C11.9183 46.2 4.7863 39.5809 9.31603 35.0881Z" fill="#063439"/>
</svg>
