<svg width="50" height="36" viewBox="0 0 50 36" fill="none" xmlns="http://www.w3.org/2000/svg">
<g clip-path="url(#clip0_182_2538)">
<path d="M7.49444 10.5301C11.266 10.2886 15.1173 11.3516 18.8149 13.1628C20.253 13.8675 21.5501 14.8008 22.9046 15.6401C24.2707 16.4864 25.5561 16.3577 26.6956 15.2017C28.1075 13.7685 29.5223 12.3383 30.9225 10.8933C31.1677 10.6399 31.3954 10.5687 31.7398 10.6568C36.9398 11.989 42.1417 13.3152 47.3485 14.6207C47.8214 14.7395 48.0033 14.9453 47.9576 15.4283C47.9235 15.7876 47.9372 16.1538 47.9537 16.5161C47.9703 16.8842 47.8068 17.008 47.4594 17.003C46.5681 16.9901 45.6758 16.9971 44.7835 17C39.1282 17.0218 34.3301 21.2916 33.5273 26.9984C33.4281 27.7061 33.4368 28.4128 33.4388 29.1205C33.4398 29.5164 33.3103 29.6747 32.9017 29.6737C28.3449 29.6628 23.7881 29.6599 19.2313 29.6767C18.7322 29.6787 18.6913 29.4382 18.6913 29.0393C18.6981 26.367 18.1717 23.8243 16.7715 21.5301C14.4975 17.8047 11.2309 15.6075 6.94369 14.9998C6.18374 14.8919 5.42379 14.9057 4.66287 14.9087C4.26587 14.9097 4.11407 14.7652 4.11991 14.3574C4.13645 13.2529 4.13451 12.1473 4.12089 11.0418C4.11602 10.6528 4.27365 10.5162 4.64341 10.5232C5.4705 10.538 6.29759 10.5281 7.49347 10.5281L7.49444 10.5301Z" fill="#FF671F"/>
<path d="M8.35554 19.0161C12.959 19.0161 16.716 22.8286 16.714 27.5002C16.7121 32.155 12.924 36.0189 8.34775 35.9992C3.46111 35.9784 -0.0583995 31.8007 -1.67139e-05 27.4438C0.0632313 22.7841 3.74524 19.0171 8.35456 19.0171L8.35554 19.0161ZM4.26193 27.4953C4.25901 29.7667 6.13115 31.6868 8.33705 31.6759C10.5867 31.6651 12.4637 29.7509 12.4598 27.4735C12.456 25.2367 10.5965 23.3462 8.39057 23.3373C6.11072 23.3284 4.26387 25.1872 4.26193 27.4953Z" fill="#FF671F"/>
<path d="M50 28.5761C49.9981 32.6163 46.6488 36.022 42.6749 36.0002C38.8586 35.9784 35.4014 32.8073 35.3751 28.5286C35.3508 24.4984 38.7643 21.0966 42.7216 21.1025C46.6819 21.1085 50.001 24.5172 49.9991 28.5761H50ZM45.7517 28.5454C45.7498 26.8807 44.2785 25.399 42.6574 25.4287C41.0645 25.4584 39.6711 26.9044 39.6653 28.5326C39.6595 30.1874 41.0665 31.6592 42.6691 31.675C44.297 31.6908 45.7536 30.2122 45.7517 28.5454Z" fill="#FF671F"/>
<path d="M26.9018 0.0138248C27.4623 0.0474761 28.1658 -0.0693138 28.8537 0.07123C29.9173 0.287984 30.8066 0.856098 31.5977 1.5895C32.6739 2.58617 33.4426 3.79168 33.9379 5.18326C34.3514 6.34621 34.7747 7.50521 35.197 8.66519C35.4695 9.41343 35.2924 9.95977 34.6998 10.1904C34.0926 10.4259 33.3249 10.1102 33.0816 9.47282C32.6019 8.21287 32.1329 6.94699 31.6989 5.66923C31.3282 4.57952 30.7589 3.64718 29.854 2.9405C29.2585 2.47433 28.6105 2.19918 27.834 2.22887C26.9436 2.26253 26.0494 2.25857 25.1591 2.22492C24.2765 2.19225 23.789 1.55288 24.0148 0.787805C24.1559 0.309759 24.4643 0.0365889 24.9674 0.0177838C24.9995 0.016794 25.0326 0.0158043 25.0647 0.0158043C25.632 0.0158043 26.2002 0.0158043 26.9028 0.0158043L26.9018 0.0138248Z" fill="#FF671F"/>
<path d="M41.7224 6.3612C41.7224 7.59541 41.7253 8.83061 41.7224 10.0648C41.7204 10.6567 41.6474 10.7121 41.0597 10.6082C38.8781 10.2232 37.4614 8.50103 37.4779 6.2543C37.4925 4.20355 39.0114 2.48536 41.1142 2.14191C41.6309 2.05779 41.7194 2.12608 41.7214 2.65757C41.7262 3.89178 41.7224 5.12699 41.7233 6.3612H41.7224Z" fill="#FF671F"/>
</g>
<defs>
<clipPath id="clip0_182_2538">
<rect width="50" height="36" fill="white"/>
</clipPath>
</defs>
</svg>
