<svg width="51" height="51" viewBox="0 0 51 51" fill="none" xmlns="http://www.w3.org/2000/svg">
<g clip-path="url(#clip0_300_3831)">
<path d="M4.76276 11.6711L33.4579 11.6411C36.0972 12.0335 38.1105 14.0663 38.4313 16.7351V44.9432C38.1105 47.6372 36.0361 49.7204 33.3441 50.0432H5.08714C2.39994 49.7216 0.321986 47.642 0 44.9432L0.00598488 16.6199C0.386623 14.0759 2.24313 12.1475 4.76396 11.6699L4.76276 11.6711ZM21.0716 28.9198V24.8998C21.0716 24.1306 19.9775 23.191 19.2043 23.1706C18.3556 23.149 17.2412 24.0346 17.2412 24.8998V28.9198H13.2314C12.3683 28.9198 11.485 30.0369 11.5065 30.8877C11.5269 31.6629 12.4641 32.7597 13.2314 32.7597H17.2412V36.7797C17.2412 37.5885 18.3867 38.5293 19.2043 38.5089C19.9775 38.4897 21.0716 37.5489 21.0716 36.7797V32.7597H25.0814C25.9732 32.7597 26.9487 31.7013 26.926 30.7917C26.9044 29.9325 25.9396 28.9198 25.0814 28.9198H21.0716Z" fill="#063439"/>
<path d="M49.3986 29.4415C49.5733 29.6251 49.8714 30.1747 49.9121 30.4279C50.7799 35.9371 47.3386 39.381 41.8481 38.5123C40.3734 38.2783 39.8276 36.2707 40.8246 35.2207C42.0587 33.9211 44.5269 35.5507 45.7322 33.7807C46.5785 32.5375 45.5407 30.5467 46.5701 29.4607C47.268 28.7251 48.7007 28.7035 49.3998 29.4415H49.3986Z" fill="#063439"/>
<path d="M49.3949 9.19696C48.6587 9.93615 47.3528 9.90855 46.6071 9.19816C45.3994 8.04857 46.8429 5.58139 45.3383 4.4102C44.0564 3.41181 42.1149 4.5338 40.9119 3.48141C39.7844 2.49622 40.317 0.348239 41.8479 0.129841C47.4211 -0.663351 50.7163 2.61262 49.906 8.20817C49.8557 8.55136 49.6379 8.95216 49.3949 9.19576V9.19696Z" fill="#063439"/>
<path d="M20.5504 0.641869C21.2734 1.40506 21.2889 2.75985 20.4977 3.47984C19.3271 4.54663 17.3664 3.40304 16.0737 4.40983C14.5703 5.58102 16.0163 7.9798 14.8037 9.19659C13.7552 10.2478 11.7203 9.68379 11.5061 8.209C10.6969 2.62545 13.9982 -0.679319 19.5641 0.130674C19.8885 0.177473 20.3266 0.405471 20.5504 0.641869Z" fill="#063439"/>
<path d="M35.992 0.64177C36.989 1.69416 36.5557 3.57934 35.1086 3.93214L26.5263 3.95254C25.3485 3.57214 24.726 2.96375 24.914 1.63056C25.0229 0.857768 25.68 0.284173 26.4269 0.148575C28.8352 -0.291821 32.3687 0.419772 34.8979 0.120975C35.2678 0.138975 35.743 0.377773 35.9932 0.64297L35.992 0.64177Z" fill="#063439"/>
<path d="M49.3979 14.0818C49.6241 14.3206 49.8815 14.8498 49.921 15.1774C49.6564 17.7706 50.2705 21.0609 49.9078 23.5689C49.6146 25.5909 46.4569 25.5909 46.099 23.5689C46.3372 20.9409 45.7387 17.6146 46.099 15.0706C46.3133 13.5586 48.39 13.0174 49.3979 14.0818Z" fill="#063439"/>
</g>
<defs>
<clipPath id="clip0_300_3831">
<rect width="50.0443" height="50.0443" fill="white"/>
</clipPath>
</defs>
</svg>
