<svg width="74" height="29" viewBox="0 0 74 29" fill="none" xmlns="http://www.w3.org/2000/svg">
<g clip-path="url(#clip0_182_2523)">
<path d="M37.7593 24.4491C34.167 24.4491 30.5748 24.4333 26.9825 24.4614C26.2116 24.4667 25.9708 24.3013 26.0409 23.4693C26.4218 18.9045 22.8403 14.6001 18.2992 14.0759C13.228 13.4901 8.82349 16.6424 8.01662 21.4112C7.88364 22.201 7.81895 22.9856 7.91778 23.7701C7.98427 24.2978 7.77222 24.4544 7.28163 24.4491C6.14411 24.4368 5.00479 24.4808 3.86907 24.4298C2.30206 24.3594 0.787159 23.1034 0.26602 21.529C-0.0664314 20.5281 -0.0250997 19.4973 0.0701431 18.4806C0.142024 17.7312 0.690119 17.2545 1.41612 17.1208C2.42965 16.9326 2.67225 16.3627 2.61834 15.4356C2.54825 14.2377 2.58239 13.0327 2.60755 11.8313C2.66146 9.28241 4.07573 7.84877 6.66166 8.00533C9.29611 8.1654 11.6484 7.18736 14.1032 6.59983C14.4428 6.51892 14.6567 6.26385 14.8903 6.03869C16.4231 4.56459 18.2256 3.47749 20.1232 2.51879C26.6231 -0.765387 33.3925 -0.53319 40.108 1.45632C45.1864 2.96032 49.9198 5.3421 54.0494 8.7072C54.5238 9.09243 55.0126 9.20677 55.6074 9.22084C59.4782 9.3088 63.3095 9.67996 66.9916 10.9641C68.2388 11.3986 69.4158 11.9615 70.4833 12.739C71.1805 13.2474 71.7358 13.8296 71.831 14.7215C71.8688 15.0785 72.07 15.2879 72.4151 15.4233C73.0926 15.6907 73.3998 16.2149 73.4861 16.9185C73.6245 18.0514 73.8365 19.1754 73.9695 20.3083C74.2498 22.69 72.6702 24.4473 70.2514 24.4421C69.4176 24.4421 68.3843 24.7675 67.8003 24.3084C67.2181 23.8493 67.6565 22.8202 67.6116 22.0445C67.378 18.0056 63.5323 14.3186 59.41 14.0266C54.2111 13.659 50.4877 17.1613 49.6718 21.0119C49.4939 21.8545 49.467 22.7041 49.5389 23.5485C49.6 24.2626 49.3232 24.4649 48.6278 24.4597C45.0049 24.4368 41.3821 24.4491 37.7611 24.4491H37.7593ZM48.8775 9.01328C47.1542 7.9121 45.5656 7.08006 43.9123 6.3518C40.9526 5.04834 37.8761 4.14593 34.6558 3.72376C33.4878 3.57072 33.2829 3.71848 33.4195 4.83021C33.5345 5.76252 33.6046 6.7001 33.5489 7.63065C33.4967 8.5049 33.8633 8.69664 34.69 8.71247C38.0935 8.7758 41.4935 8.91829 44.8971 9.008C46.1389 9.04142 47.3806 9.01328 48.8775 9.01328ZM17.4277 8.13726C17.8662 8.39232 18.2022 8.30789 18.5203 8.31317C20.1951 8.34483 21.8753 8.29382 23.5448 8.40288C25.5485 8.53481 27.5522 8.45917 29.5558 8.53305C29.9386 8.54712 30.3717 8.60517 30.3358 7.98774C30.2657 6.78981 30.2172 5.59013 30.1722 4.39044C30.1453 3.67274 29.7805 3.4511 29.0689 3.5197C26.4308 3.77653 23.8718 4.32536 21.4728 5.46347C20.0226 6.15127 18.6443 6.95516 17.4277 8.13726Z" fill="#FF671F"/>
<path d="M10.7822 22.9244C10.7678 19.5153 13.4885 16.7958 16.9316 16.7765C20.3873 16.7571 23.1457 19.4467 23.1547 22.8435C23.1637 26.2649 20.4646 28.9703 17.0125 28.9985C13.5819 29.0266 10.7965 26.3106 10.7822 22.9244Z" fill="#FF671F"/>
<path d="M52.3242 22.8698C52.3296 19.5293 55.1563 16.7729 58.5707 16.7764C61.9743 16.7816 64.8442 19.5962 64.8082 22.8962C64.7723 26.2331 61.9168 29.0142 58.5402 29.0001C55.1312 28.9861 52.3188 26.2103 52.3242 22.8698Z" fill="#FF671F"/>
</g>
<defs>
<clipPath id="clip0_182_2523">
<rect width="74" height="29" fill="white"/>
</clipPath>
</defs>
</svg>
