<svg width="89" height="44" viewBox="0 0 89 44" fill="none" xmlns="http://www.w3.org/2000/svg">
<path d="M4.49992 0L84.7807 0.206391C87.0155 1.07479 88.0114 3.28279 88.3587 5.5531C87.7103 15.6312 89.2156 26.7725 88.3703 36.7221C88.0847 40.0672 86.5523 42.4465 83.1557 43.1436L5.93578 43.1514C3.11424 43.0891 0.759734 41.1147 0.346732 38.2759C1.11484 27.5007 -0.645246 15.3703 0.339012 4.76258C0.597621 1.98214 1.81733 0.665904 4.49992 0ZM4.48448 3.09976C3.44232 3.46971 3.5118 4.2135 3.41916 5.14031C2.39631 15.565 4.24131 27.672 3.42302 38.2798L4.21043 39.8218L83.1673 40.036L85.1898 38.5718L85.2902 4.75868L84.5028 3.21659L4.48834 3.10366L4.48448 3.09976Z" fill="#063439"/>
<path d="M22.2156 12.423C26.6699 11.7571 32.1007 12.8475 30.6764 18.6264C30.4139 19.6896 29.3988 20.4879 29.3409 20.7955C29.2328 21.403 30.5529 22.4116 30.7497 23.1709C31.3943 25.6437 30.8578 29.168 28.0787 30.0247C26.998 30.3557 21.9879 30.7334 21.6328 29.6431L21.7486 12.7346L22.2118 12.423H22.2156ZM24.2807 19.378L27.3724 19.1872C29.4104 16.5898 26.9285 14.9854 24.2807 15.4838V19.3819V19.378ZM27.6657 26.6835C29.7346 24.5884 26.8629 21.9521 24.2807 22.8789V27.1664C25.1839 27.143 27.0173 27.3377 27.6657 26.6835Z" fill="#063439"/>
<path d="M16.9899 30.2434L15.8088 26.1778L12.2732 26.2246C11.6247 28.6351 12.1651 30.9093 8.8418 30.2862L12.5704 12.3535L15.5463 12.4197L16.1021 13.0272L19.603 29.667C19.4062 30.5004 17.6654 30.3524 16.9861 30.2395L16.9899 30.2434ZM15.4074 22.8795C14.7165 21.2556 15.1835 18.6076 13.8673 17.4315L13.0915 22.8834H15.4074V22.8795Z" fill="#063439"/>
<path d="M59.7949 30.2825C59.216 25.4381 65.9668 22.2604 66.6732 17.9145C66.9935 15.948 64.8475 14.0165 63.6162 15.6481C62.8635 16.645 63.7513 18.8881 60.6055 16.793C60.2697 10.5078 69.1512 10.5312 69.2979 16.7774C69.4059 21.3142 66.0363 23.8376 63.6548 27.1632L68.6957 27.3385L69.0585 30.2825H59.7949Z" fill="#063439"/>
<path d="M73.6705 25.2397C73.8635 25.4383 73.3231 27.3231 75.0639 27.5645C78.2444 28.0124 78.3949 22.3308 75.2106 21.8635C74.6084 18.7909 76.0211 19.784 76.7545 18.7715C77.7696 17.3657 77.1444 14.5385 75.1179 15.1421C73.9754 15.4809 74.0449 17.7979 71.9644 17.4475C70.9184 17.2722 70.903 16.7192 71.0574 15.7691C71.9027 10.6288 81.9267 10.5781 79.6803 18.9934C79.522 19.5854 78.7269 20.0566 78.7771 20.6679C78.9353 22.5566 80.8923 22.9655 80.0778 26.7935C78.8851 32.4245 70.9609 30.7071 70.957 26.5676C70.957 24.862 73.3386 24.8892 73.6705 25.2319V25.2397Z" fill="#063439"/>
<path d="M42.8136 17.4299L40.1503 17.391C40.1851 15.144 38.0197 14.1315 36.6919 16.1254C35.3757 18.0997 34.901 27.2121 38.0004 27.5587C40.1156 27.7962 39.857 25.7128 40.3626 25.5882C43.4428 25.1676 43.3888 26.1645 41.9761 28.4621C40.683 30.5611 38.1625 30.8804 35.9663 29.9847C32.1335 28.4271 32.6507 17.8388 34.1676 14.7429C36.5993 9.77784 43.273 12.2351 42.8136 17.4299Z" fill="#063439"/>
<path d="M58.2495 12.3698V29.6989C57.7361 30.4972 55.8834 30.5751 55.343 29.9092C54.5711 28.9629 55.7522 18.0553 55.1578 15.8745C53.9033 17.2063 50.3252 17.7749 50.5067 15.3177C50.526 15.0646 54.5016 12.6268 54.7602 12.5489C55.9066 12.2062 57.0915 12.4126 58.2495 12.3698Z" fill="#063439"/>
<path d="M80.6372 5.74854L80.2744 8.69643C77.3178 8.81325 73.5004 10.1879 74.4924 5.78358L80.6372 5.74854Z" fill="#063439"/>
<path d="M7.74135 5.80694C8.06172 5.29291 13.5388 5.54214 13.8167 6.38717C14.8782 9.58819 10.1808 8.92618 8.31647 8.80935C7.36309 8.49392 7.64486 6.67145 7.74135 5.80694Z" fill="#063439"/>
<path d="M75.0943 34.6196L80.2742 34.7365C82.1616 38.837 77.4256 37.6843 74.8241 37.513C74.2258 37.0885 74.1795 34.9078 75.0943 34.6235V34.6196Z" fill="#063439"/>
<path d="M13.4753 37.6799H7.68555L8.04837 34.7359C10.8313 34.4984 14.9266 33.5326 13.4753 37.6799Z" fill="#063439"/>
<path d="M50.5319 20.1567V22.8827H44.3561C44.3831 21.9364 44.0628 20.7876 44.9351 20.1567H50.5319Z" fill="#063439"/>
</svg>
