<svg width="53" height="37" viewBox="0 0 53 37" fill="none" xmlns="http://www.w3.org/2000/svg">
<g clip-path="url(#clip0_300_3834)">
<path d="M15.8759 8.58301H34.0475C35.3729 8.82406 34.7853 10.8291 34.9521 11.8956C35.0526 12.5432 35.4303 13.263 35.9527 13.6662C37.1952 14.626 38.8044 14.0773 40.2579 14.2239C40.8068 14.2794 41.3237 14.405 41.4772 14.997V35.5532C41.3104 36.2031 40.735 36.2675 40.153 36.3319L20.6294 36.2986L20.0452 36.1087C18.4393 34.7201 16.9748 32.6984 15.3557 31.3831C13.5024 29.879 11.3167 30.8721 9.23143 30.5444C8.60741 30.4467 8.44064 29.8235 8.39205 29.2781C8.67479 24.2415 8.03199 18.8195 8.39205 13.8284C8.45169 12.9986 8.57318 12.5043 9.47552 12.3632C11.3332 12.0711 13.3599 13.0475 14.609 11.0835C15.2187 10.1249 14.7062 8.9407 15.8781 8.58301H15.8759Z" fill="#063439"/>
<path d="M47.6835 18.2452C48.0049 18.1507 50.0018 18.1741 50.4226 18.2218C51.5458 18.3485 52.5067 19.3393 52.7707 20.4146L52.7872 31.0432C52.5807 32.2018 51.5558 33.2427 50.3928 33.4115C49.8472 33.4915 48.3307 33.5149 47.8183 33.3927C47.3058 33.2705 47.2031 32.9372 47.0794 32.4695L47.0529 19.2771C47.0451 18.9361 47.3544 18.3407 47.6835 18.2452Z" fill="#063439"/>
<path d="M16.1021 0.0339181L34.5212 -0.000518119C35.6974 -0.0405086 36.4374 1.19586 35.3175 1.91791C28.7647 2.07565 22.1369 2.02344 15.5786 1.94457C14.6144 1.25363 15.0087 0.203878 16.1021 0.0328073V0.0339181Z" fill="#063439"/>
<path d="M0.940999 12.3921C1.79143 12.3921 1.94495 13.1264 1.99465 13.8295C2.33262 18.5306 1.7329 23.6405 1.98803 28.3849C1.92728 29.558 0.841597 30.1434 0.0596408 29.1059L0 13.2763C0.038656 12.7609 0.413067 12.3921 0.940999 12.3921Z" fill="#063439"/>
<path d="M28.2764 3.89209V6.78029H22.6989C22.6867 6.78029 22.5332 6.62588 22.5332 6.61366V3.89209H28.2764Z" fill="#063439"/>
<path d="M45.2849 21.9985H43.2969V29.6634H45.2849V21.9985Z" fill="#063439"/>
<path d="M6.6294 19.1104H3.75781V22.9983H6.6294V19.1104Z" fill="#063439"/>
</g>
<defs>
<clipPath id="clip0_300_3834">
<rect width="52.7865" height="36.3336" fill="white" transform="translate(0 -0.000488281)"/>
</clipPath>
</defs>
</svg>
