<svg width="51" height="36" viewBox="0 0 51 36" fill="none" xmlns="http://www.w3.org/2000/svg">
<g clip-path="url(#clip0_182_2532)">
<path d="M22.2588 30.0115C20.8169 30.0115 19.375 30.0204 17.9341 30.0055C17.5901 30.0015 17.4091 30.1059 17.2629 30.4381C15.8538 33.6213 13.4146 35.5297 9.96397 35.9284C5.03869 36.4973 0.808494 33.0356 0.118378 28.4343C-0.555828 23.9384 1.82676 20.072 6.09077 18.4809C6.76299 18.2303 7.43122 18.0155 8.14322 17.9558C8.54993 17.922 8.52209 17.7748 8.33215 17.4993C7.83495 16.7754 7.34571 16.0455 6.87038 15.3076C6.70133 15.046 6.48256 14.9357 6.18325 14.8879C2.69388 14.336 -0.0287939 11.116 4.38598e-05 7.58966C0.00799909 6.59721 0.617569 5.97866 1.61396 5.97667C4.06616 5.9717 6.51936 5.97965 8.97156 5.97269C10.5 5.96872 11.7609 6.5624 12.5295 7.86214C13.0605 8.76112 13.689 8.9988 14.6854 8.9809C18.1976 8.91924 21.7109 8.95206 25.2241 8.96499C25.597 8.96598 25.8386 8.86554 26.0375 8.54036C26.4094 7.93275 26.8241 7.35299 27.2169 6.75831C27.5749 6.21633 28.0631 5.95877 28.7224 5.96872C29.9813 5.98761 31.2412 5.96275 32.5001 5.98065C32.882 5.98662 33.0391 5.87922 33.0212 5.47448C32.9924 4.82908 32.9964 4.18169 33.0202 3.5363C33.0341 3.1604 32.889 3.0351 32.527 3.05498C32.1471 3.07686 31.7633 3.07786 31.3844 3.04902C30.6317 2.99233 30.0499 2.34594 30.033 1.58121C30.0161 0.782671 30.575 0.0318635 31.3387 0.0318635C33.3852 0.0318635 35.4376 -0.163048 37.4642 0.396826C41.2469 1.441 44.4419 5.07371 44.9173 8.95206C45.1082 10.5054 45.0028 12.0627 45.0018 13.618C45.0018 14.3738 44.3534 14.9466 43.5619 14.9913C42.1528 15.0709 40.7567 15.2121 39.4132 15.6845C38.7241 15.9271 38.0549 16.2085 37.4036 16.5397C37.1281 16.6789 37.0853 16.8162 37.2633 17.0737C37.5736 17.5222 37.9087 17.9568 38.1394 18.456C38.2756 18.7504 38.4825 18.7583 38.75 18.627C39.8558 18.0821 41.0282 17.8325 42.2572 17.913C44.9919 18.09 47.284 19.2148 48.9864 21.3508C53.2365 26.686 50.4223 34.4059 43.7469 35.821C38.8713 36.8543 33.8118 33.2941 33.1127 28.3348C32.707 25.4579 33.5363 22.9668 35.4834 20.8377C35.719 20.5801 35.7648 20.4021 35.543 20.1227C35.2964 19.8124 35.0776 19.4763 34.8798 19.1322C34.6849 18.7941 34.5287 18.7822 34.2493 19.0636C32.6155 20.7144 31.4809 22.6466 30.9031 24.899C30.7222 25.6041 30.5949 26.3241 30.399 27.0242C29.9157 28.7465 28.2789 29.9906 26.487 30.0075C25.0789 30.0204 23.6698 30.0105 22.2618 30.0105V30.0125L22.2588 30.0115ZM43.5251 26.9864C43.5122 27.6228 43.2238 28.0932 42.652 28.3756C41.94 28.7266 41.1644 28.4939 40.6642 27.761C39.7126 26.3648 38.7649 24.9666 37.8421 23.5525C37.5915 23.1677 37.4632 23.2283 37.2305 23.5545C36.3654 24.7638 36.0014 26.1023 36.1407 27.5781C36.4678 31.0298 39.8259 33.497 43.2049 32.7721C46.3273 32.1018 48.2694 29.2637 47.8239 26.0208C47.3715 22.7252 43.7747 20.3584 40.6314 21.2683C40.1769 21.3996 40.1849 21.5388 40.4265 21.8898C41.3454 23.2274 42.2374 24.5838 43.1403 25.9322C43.3551 26.2525 43.545 26.5806 43.5241 26.9884L43.5251 26.9864ZM13.8063 23.9742C12.6528 23.5973 11.7927 22.8882 11.1702 21.8699C11.0339 21.6482 10.9047 21.4284 10.6093 21.3449C9.68454 21.0843 8.75577 21.0247 7.81308 21.2046C5.12122 21.7188 2.77443 24.3103 3.12446 27.6367C3.37306 29.9976 5.1073 32.0769 7.42924 32.6945C9.80288 33.326 12.4281 32.3882 13.7606 30.4301C13.8312 30.3257 13.9764 30.2223 13.9108 30.0861C13.8412 29.9429 13.6721 30.0135 13.5478 30.0125C12.0403 30.0075 10.5318 30.0174 9.02426 30.0065C7.26914 29.9936 5.95951 28.6779 5.96846 26.9585C5.97741 25.2789 7.30295 23.9831 9.0352 23.9752C10.6262 23.9682 12.2163 23.9732 13.8073 23.9732L13.8063 23.9742Z" fill="#FF671F"/>
</g>
<defs>
<clipPath id="clip0_182_2532">
<rect width="51" height="36" fill="white"/>
</clipPath>
</defs>
</svg>
