<svg width="52" height="49" viewBox="0 0 52 49" fill="none" xmlns="http://www.w3.org/2000/svg">
<path d="M37.0144 21.6422C53.298 20.2692 57.1678 44.4244 41.3519 48.2035C22.435 52.7246 17.3125 23.3029 37.0144 21.6422ZM31.5222 33.8032V41.8124H44.2796V33.8032C44.2796 33.2148 42.5688 32.7833 41.9898 32.9859C42.608 28.9813 40.5865 25.4932 36.1607 26.6701C32.4676 27.6508 33.5274 32.4825 33.112 32.9402C33.004 33.0611 31.7119 33.1232 31.5255 33.8032H31.5222Z" fill="#063439"/>
<path d="M37.4105 19.5834H35.1207V3.7284C35.1207 3.66956 34.3618 2.91113 34.3029 2.91113H3.06376C3.16843 3.2315 2.73665 3.62052 2.73665 3.7284V42.9573C2.73665 44.0655 5.36008 43.4313 5.83112 43.4313C11.1467 43.4575 16.6258 43.2613 21.8563 43.4444C24.084 43.5228 24.8625 44.2486 25.9616 46.0629H2.9002C1.28427 46.0629 0.558084 43.9838 0.433781 42.6435C-0.276051 34.9709 0.535186 25.3762 0.45995 17.4454C0.420697 13.2806 -0.256424 8.91969 0.10667 4.69931C0.345461 1.95329 0.963702 0.557396 3.86845 0.282794C13.5052 -0.619471 24.5223 0.988914 34.3095 0.286063C35.4118 0.142223 37.4105 1.81599 37.4105 2.74441V19.5801V19.5834Z" fill="#063439"/>
<path d="M11.239 19.9102L12.1942 21.1001C12.4493 22.5581 8.8609 22.2377 8.00059 22.1691L7.9319 20.7797L9.60017 19.9134C5.77623 20.2763 7.75526 15.0589 7.35291 12.594C7.55572 12.0121 8.74314 12.1101 9.45951 11.4302C10.9381 10.031 10.4997 7.41903 13.3423 7.13788C14.7783 6.99731 20.5682 6.94828 21.7229 7.30461C23.8099 7.94535 24.0062 10.7241 24.9548 11.8388C25.2557 12.1919 25.8838 12.0448 26.2632 12.5711C26.7932 13.3066 26.839 18.8935 26.2959 19.4296C25.3212 20.3907 24.7127 19.0046 25.1674 21.8847L21.4154 22.1626C20.843 21.1524 21.5463 20.7242 22.0337 19.9069H11.239V19.9102ZM22.6879 12.0644C22.4229 10.9496 21.7818 9.57335 20.5813 9.42951C19.6589 9.31836 13.676 9.30201 13.0905 9.50143C12.4657 9.71718 11.8278 11.3942 11.8932 12.0644H22.6879ZM10.4899 14.7385C9.18801 15.1308 9.31885 17.0922 10.768 17.3014C13.1624 17.648 12.9302 14.0062 10.4899 14.7385ZM21.5888 14.7254C20.3327 15.1471 21.1832 18.0566 23.015 17.1413C24.5982 16.3501 23.7903 13.9866 21.5888 14.7254Z" fill="#063439"/>
<path d="M24.6524 25.4668L23.5075 28.0821H7.64258V25.4668H24.6524Z" fill="#063439"/>
<path d="M22.0355 35.6016H7.64258V38.2168H22.0355V35.6016Z" fill="#063439"/>
<path d="M22.3626 30.6973L22.0355 32.9856H7.64258V30.6973H22.3626Z" fill="#063439"/>
<path d="M40.026 32.9859H35.1193C34.3277 26.7845 41.0924 26.3791 40.026 32.9859Z" fill="#063439"/>
<path d="M38.3716 39.8384H37.4295C37.5604 38.5177 35.1495 35.2911 36.9748 34.6733C40.6025 33.4441 38.895 38.1123 38.3716 39.8384Z" fill="#063439"/>
</svg>
