<svg width="46" height="48" viewBox="0 0 46 48" fill="none" xmlns="http://www.w3.org/2000/svg">
<path d="M5.69933 0.0294424L40.1671 -0.000488281C43.1869 0.312336 45.679 2.67204 45.9311 5.84083V41.1861C45.6574 44.5277 43.126 47.1327 39.8859 47.4136H6.04517C2.81639 47.1443 0.320535 44.5924 0 41.2827L0.00468618 6.03876C0.351463 2.90376 2.65987 0.448473 5.69933 0.0294424ZM15.4485 6.01752C8.646 6.70496 9.32174 17.51 16.3566 16.9944C23.3953 16.4788 22.5311 5.30111 15.4485 6.01752ZM31.0037 11.1318C28.9287 11.5084 28.5557 14.2069 30.626 14.9465L39.2186 14.961C41.2374 14.4696 41.1043 11.5055 39.0912 11.1502C36.7312 10.734 33.4574 11.351 31.0037 11.1318ZM30.91 19.049C28.7403 19.4603 28.7085 22.1801 30.7207 22.8627L39.1249 22.8772C41.2927 22.1985 41.2449 19.2208 38.7612 19.02C36.2457 18.8163 33.4527 19.1581 30.9091 19.049H30.91ZM12.5402 20.4905C11.7342 20.6083 10.0125 21.7804 9.37423 22.3529C7.89902 23.6786 4.73866 28.424 7.31981 29.8791C7.56818 30.0191 7.81467 30.134 8.10615 30.1311H23.7655C26.9699 29.5276 25.1657 25.6463 23.9801 23.9161C23.1853 22.7565 21.3446 21.2252 20.0578 20.7154C18.9921 20.2935 18.9097 20.6546 17.9228 20.8303C16.7803 21.0331 15.7418 21.1084 14.5871 20.9443C14.0538 20.868 12.9282 20.4345 12.5393 20.4914L12.5402 20.4905ZM9.07244 35.9453C7.42291 36.1954 6.72935 38.3755 8.16332 39.4376C8.76128 39.8808 10.0959 39.8663 10.8288 39.7823C11.8317 39.6664 12.6508 38.5001 12.4043 37.4824C12.0304 35.9405 10.3752 35.7484 9.07244 35.9453ZM17.9752 35.9444C15.5759 36.2833 15.7587 39.5756 17.8525 39.7861C18.4111 39.8421 19.7579 39.8528 20.219 39.6075C21.6201 38.8631 21.6745 36.7853 20.1899 36.123C19.6051 35.8623 18.6079 35.8546 17.9752 35.9444ZM26.5987 35.9453C24.2257 36.2968 24.3841 39.5766 26.476 39.7871C27.7928 39.9194 29.7254 39.9464 29.9016 38.1901C30.1021 36.1809 28.1649 35.7136 26.5987 35.9453ZM35.4088 35.9453C33.6036 36.2118 32.9926 38.5735 34.6487 39.5747C35.0938 39.8441 36.8099 39.8624 37.347 39.7765C38.4154 39.6046 39.0002 38.2172 38.6225 37.2188C38.1249 35.9038 36.5831 35.7725 35.4088 35.9453Z" fill="#063439"/>
</svg>
