<svg width="101" height="103" viewBox="0 0 101 103" fill="none" xmlns="http://www.w3.org/2000/svg">
<g clip-path="url(#clip0_300_2116)">
<path d="M1.02746 93.8093C1.53881 93.2988 2.62857 92.9144 3.35788 92.8892L61.3982 92.9165C62.6975 93.2106 63.6553 93.6937 64.1352 95.0046C64.5648 96.181 64.6381 100.109 64.4411 101.393C64.3028 102.303 63.6741 103.084 62.6829 102.992L1.27475 102.977C0.654427 102.771 0.191279 102.269 0.107451 101.626C-0.0371524 100.532 -0.0371524 96.6075 0.132599 95.5361C0.197566 95.1181 0.738255 94.0992 1.02746 93.8072V93.8093Z" fill="white"/>
<path d="M39.2527 15.0038C41.0613 14.8336 43.0082 17.7243 44.121 18.8524C50.582 25.3983 57.3867 31.5934 63.6571 38.3411C64.204 39.3809 64.072 40.1666 63.4077 41.1162C62.517 42.3892 56.9718 47.8785 55.6557 48.8932C53.34 50.6788 51.6906 48.5381 49.9889 47.0004C42.8887 40.5784 36.5283 32.9064 29.623 26.2428C29.1032 25.2555 29.2436 24.5706 29.8723 23.6778C30.6415 22.5833 36.851 16.3609 37.9408 15.5899C38.2782 15.3504 38.8503 15.0416 39.2506 15.0059L39.2527 15.0038Z" fill="white"/>
<path d="M59.6358 90.7968H4.72852V84.1794C4.72852 83.3832 6.21017 81.8686 7.02749 81.6522C23.8748 81.5535 40.8374 81.3539 57.6553 81.753C58.3532 81.9022 59.6358 83.3433 59.6358 83.9693V90.7968Z" fill="white"/>
<path d="M53.9137 0.0904723C54.6828 -0.085991 55.7223 -0.0397745 56.284 0.565243L78.6723 23.079C79.2591 24.0748 79.2067 24.9109 78.5885 25.873C78.1924 26.4886 73.5232 31.1333 72.9049 31.5199C71.8948 32.1501 71.0859 32.1543 70.103 31.4589L47.2955 8.73508C46.9015 7.9662 46.9225 6.88011 47.3835 6.14485C47.767 5.53353 52.5557 0.939177 53.241 0.462306C53.4652 0.30685 53.6224 0.155596 53.9137 0.0883716V0.0904723Z" fill="white"/>
<path d="M21.8069 32.7148C22.1233 32.7148 22.446 32.8367 22.7478 32.9207C30.6172 40.391 38.2308 48.2247 45.8529 55.9786C46.184 57.0395 46.1421 57.8168 45.5553 58.7243C45.0817 59.4575 40.5319 63.9825 39.8382 64.3354C38.7904 64.8669 38.0548 64.7913 37.1012 64.119L14.5222 41.3763C14.1471 40.1557 14.2498 39.3679 14.9979 38.3911C15.7461 37.4142 19.8159 33.3766 20.715 32.9879C21.0356 32.8493 21.4569 32.7148 21.8027 32.7148H21.8069Z" fill="white"/>
<path d="M84.4698 59.4995L99.2487 74.5115C104.821 81.5763 95.9396 90.597 88.7828 85.0027L73.8887 70.1041L84.4677 59.4995H84.4698Z" fill="white"/>
<path d="M13.9492 73.2555C14.1504 72.2514 15.8772 70.7892 16.9879 70.8396L47.9058 70.9384C48.8865 71.3711 49.6096 71.7472 50.0455 72.7849C50.2047 73.1673 50.1377 73.7828 50.2613 73.9467C50.3389 74.0475 50.6239 73.974 50.6239 73.9908V79.2427H13.9492C14.1902 77.5011 13.6243 74.8794 13.9492 73.2555Z" fill="white"/>
<path d="M63.3022 44.374L74.3067 55.4114C74.8034 55.6677 75.4468 54.5627 75.8785 54.2455C77.1527 53.3043 78.1188 53.401 79.3406 54.3442C79.7262 54.6425 82.6057 57.5226 82.6664 57.7516C82.8571 58.4596 73.5858 67.0433 72.4834 68.2953C72.2236 68.392 72.0832 68.2512 71.8883 68.121C71.4063 67.7953 69.4908 65.8038 69.0633 65.2765C68.1391 64.1337 67.6466 63.3102 68.3968 61.8691C68.7133 61.262 70.0692 60.4154 69.8135 59.9175L58.8027 48.8864L63.3043 44.374H63.3022Z" fill="white"/>
<path d="M47.5853 12.2329L66.6687 31.1376C66.8091 31.2952 66.7525 31.3918 66.6687 31.5536C66.5702 31.7468 63.808 34.5156 63.6152 34.6144L44.4291 15.7979C44.2887 15.6403 44.3453 15.5437 44.4291 15.3819C44.8483 14.5668 46.9796 13.1383 47.5853 12.2329Z" fill="white"/>
<path d="M29.9805 29.8789L48.9424 49.0966L45.8009 52.2603L26.6148 33.4439C26.4199 33.2002 26.5939 33.0994 26.7196 32.9145C27.2938 32.0658 29.335 30.9272 29.9805 29.8789Z" fill="white"/>
<path d="M4.24654 57.6425C4.61119 57.5311 5.00937 57.5795 5.36354 57.7034C7.21824 59.0941 11.0471 59.9344 12.6859 61.2873C13.8448 62.2452 12.7655 64.1611 11.2189 63.3859C10.0223 62.4763 4.09565 60.4344 3.62412 59.4428C3.3391 58.8462 3.57801 57.8442 4.24654 57.6404V57.6425Z" fill="white"/>
<path d="M12.952 59.2329L9.59258 52.2017C9.18392 51.1807 10.2674 50.1325 11.2167 50.5673C12.2352 51.0358 14.3456 56.7477 15.1147 58.0166C15.2971 59.3401 13.9956 59.8737 12.952 59.2329Z" fill="white"/>
<path d="M9.28978 65.2265C11.2912 65.0186 11.9178 66.7139 10.6583 67.4386C10.1302 67.7432 4.12389 69.0919 3.32962 69.1423C1.49169 69.2558 1.03902 67.51 2.47877 66.8021C3.35896 66.3693 8.16858 65.3421 9.28978 65.2265Z" fill="white"/>
</g>
<defs>
<clipPath id="clip0_300_2116">
<rect width="101" height="103" fill="white"/>
</clipPath>
</defs>
</svg>
