<svg width="53" height="53" viewBox="0 0 53 53" fill="none" xmlns="http://www.w3.org/2000/svg">
<path d="M5.98156 37.183C3.96129 36.7489 0.472893 35.187 0.087566 32.9024C-0.347272 30.3269 0.908808 26.4513 2.2779 24.2657C8.24401 14.7437 22.4333 15.293 27.6729 25.2233C27.8193 25.5002 28.3133 26.3425 28.1648 26.5741C27.5211 27.578 26.617 26.8369 25.7936 27.5478C25.6246 27.6933 25.0337 28.5582 25.0337 28.7262V32.3886C25.0337 32.4004 24.8841 32.5501 24.8723 32.5501H7.43461C7.36573 32.5501 6.67687 32.9789 6.56924 33.0844C6.38196 33.2675 5.98156 33.9849 5.98156 34.2197V37.1819V37.183Z" fill="#063439"/>
<path d="M26.4319 42.5694H7.75751C7.53901 42.5694 7.39371 41.9651 7.37541 41.7669C7.2258 40.1447 7.19028 36.2325 7.37864 34.6502C7.40017 34.4703 7.59068 33.9522 7.75751 33.9522H26.4319V29.0511C26.4319 28.8174 27.1724 28.4835 27.3952 28.8421C30.5898 31.7375 34.1879 34.3776 37.3039 37.3441C37.7075 37.7276 38.4018 38.1865 37.8313 38.7369L27.3511 47.7441C27.1272 48.0608 26.4308 47.6514 26.4308 47.4705V42.5694H26.4319Z" fill="#063439"/>
<path d="M41.8903 27.7452C42.6707 28.3775 43.169 28.4874 44.2346 28.3409C45.3938 28.1815 45.9804 26.4192 47.1547 27.4835C47.4851 27.7829 48.8133 29.1628 49.034 29.4805C49.6927 30.4327 48.8553 30.7806 48.4764 31.5077C47.6573 33.0771 48.4441 35.3553 50.2373 35.8164C50.9767 36.0059 51.925 35.7388 52.0498 36.803C52.1123 37.333 52.1295 39.4388 52.0251 39.9063C51.8367 40.7497 50.9154 40.5483 50.3191 40.6765C48.4883 41.0696 47.6444 43.4157 48.4764 45.011C48.879 45.7833 49.7271 46.0892 48.9823 47.0942C48.7713 47.3785 47.2451 48.9156 46.9835 49.0794C46.0751 49.6503 45.7006 48.8295 45.0171 48.4719C43.4241 47.6403 41.0788 48.4826 40.6859 50.3159C40.532 51.0344 40.7914 51.9231 39.7258 52.048C39.1963 52.1105 37.091 52.1277 36.6249 52.0232C35.7983 51.838 35.9963 50.8987 35.8553 50.3159C35.4119 48.474 33.1602 47.6155 31.5242 48.4719C30.8461 48.8262 30.3693 49.6589 29.4501 49.0794C29.3155 48.9943 28.7106 48.4115 28.8 48.278L34.3657 43.6559C35.4539 44.1762 36.4409 44.7309 37.6808 44.8268C47.1138 45.5625 47.0234 31.0187 37.783 31.6833C36.5248 31.7738 35.4775 32.3414 34.37 32.8563L28.8118 28.0931C29.2456 27.3671 29.7762 26.8846 30.6588 27.295C30.9699 27.4393 31.2325 27.8669 31.4488 28.008C33.0709 29.0647 35.4183 27.896 35.8564 26.0929C35.9813 25.578 35.8424 24.7109 36.4688 24.4437C36.7971 24.3037 39.2522 24.3048 39.7269 24.3597C40.7763 24.4825 40.5255 25.3141 40.6644 26.0067C40.8162 26.7639 41.3231 27.282 41.8914 27.742L41.8903 27.7452Z" fill="#063439"/>
<path d="M13.7057 0.0514149C20.844 -0.753221 24.3281 8.09131 18.7796 12.2384C13.9512 15.8479 7.38445 11.9486 7.91938 6.00162C8.18093 3.09869 10.8104 0.377793 13.7057 0.0514149Z" fill="#063439"/>
</svg>
