<svg width="46" height="47" viewBox="0 0 46 47" fill="none" xmlns="http://www.w3.org/2000/svg">
<g clip-path="url(#clip0_300_3832)">
<path d="M17.8235 22.23L17.7671 45.5306C17.5755 46.103 17.1939 46.4196 16.6028 46.5285C13.761 46.3126 10.5242 46.8078 7.72988 46.5312C7.051 46.4641 6.54049 45.9969 6.43391 45.3039L6.44018 22.2763C-1.50041 17.9676 -2.31363 6.49915 5.20512 1.24161C6.36047 0.433387 8.48489 -1.00436 9.11272 1.13367L9.13242 9.54972L12.1865 10.5883L15.0193 9.54972L15.117 0.849745C15.9203 -0.716812 17.476 0.239268 18.5526 0.91687C26.4878 5.9177 25.9961 17.8478 17.8226 22.2309L17.8235 22.23Z" fill="#063439"/>
<path d="M39.9311 27.1134H20.4961V23.8025C23.7714 21.5284 26.0749 17.9654 26.6768 13.9614L35.3975 13.9723C37.9357 14.4567 38.6987 15.977 39.0247 18.3717C39.4188 21.2681 39.6006 24.2098 39.9311 27.1143V27.1134Z" fill="#063439"/>
<path d="M43.6927 29.835V36.0486C43.6927 36.5575 41.7009 38.2347 41.3193 38.7245H20.4961V29.835H43.6927ZM33.548 33.0307C32.1687 33.3191 32.1687 35.4227 33.548 35.7111C34.14 35.8345 37.7198 35.8272 38.3584 35.7266C39.7923 35.4989 39.8433 33.3209 38.4336 33.0316C37.8989 32.9218 34.08 32.9209 33.548 33.0316V33.0307Z" fill="#063439"/>
<path d="M40.8256 41.4458V45.4824C40.8256 45.5223 40.4942 46.0992 40.4252 46.1654C40.2228 46.3568 39.8054 46.5029 39.5323 46.531C37.1956 46.7632 34.4774 46.3523 32.0995 46.521C31.9356 46.4947 31.4941 46.2779 31.375 46.1663C31.3051 46.101 30.9746 45.5232 30.9746 45.4833V41.4467H40.8265L40.8256 41.4458Z" fill="#063439"/>
<path d="M45.9313 27.1135H42.7518L42.0801 21.3081H44.9013C44.9371 21.3081 45.4754 21.6165 45.53 21.6691C45.5999 21.7344 45.9313 22.3123 45.9313 22.3513V27.1135Z" fill="#063439"/>
</g>
<defs>
<clipPath id="clip0_300_3832">
<rect width="45.9311" height="46.6166" fill="white" transform="translate(0 0.000488281)"/>
</clipPath>
</defs>
</svg>
