<svg width="75" height="43" viewBox="0 0 75 43" fill="none" xmlns="http://www.w3.org/2000/svg">
<path d="M18.5277 35.7695C17.9521 26.372 4.97857 26.3047 4.29627 35.7695C2.25905 35.6509 0.66485 34.5964 0.238005 32.5804C-0.101531 30.9874 -0.156503 24.5611 0.60341 23.2919C1.30512 22.1188 2.38516 22.3079 3.14831 21.6477C4.11195 20.8143 5.45069 17.4906 6.42079 16.2374C7.74983 14.5162 9.38607 13.3143 11.6076 13.0451C15.5268 12.5739 24.7169 12.6348 28.7234 12.997C31.3007 13.231 32.8949 14.4201 34.8448 15.904C36.5231 17.1797 40.0575 21.0579 41.5708 21.7374C45.0276 23.2919 50.8612 22.2182 54.5282 24.5996C59.5242 27.8464 59.8379 38.4458 51.9736 35.465C51.1554 26.5195 39.0227 26.4105 38.1043 35.4586L37.7228 35.7214L18.5277 35.7631V35.7695ZM19.1744 15.5803H11.5753C9.88082 15.5803 6.72152 20.3816 6.2397 21.9874C10.5308 22.7566 14.8413 21.6701 19.1744 21.9874V15.5771V15.5803ZM37.6063 21.9906C35.9184 20.6284 31.0679 15.5803 29.0371 15.5803H21.7613V21.9906H37.6063Z" fill="#063439"/>
<path d="M44.0732 19.4261C42.9188 19.9293 41.8387 19.0575 41.4959 17.9741C41.8678 13.5158 40.9689 8.22089 41.4798 3.87151C41.5736 3.08945 41.7934 2.44201 42.4563 1.95483L51.5009 1.78496L51.6529 0.499697C51.8081 0.243286 52.0604 0.243286 52.319 0.192003C53.7645 -0.0932545 61.6935 -0.0291516 63.3297 0.179183C65.0791 0.400338 64.1737 1.49009 64.4583 1.78496C64.7622 2.10227 71.9895 1.55739 73.3315 1.80419C73.9717 1.92278 74.4535 2.41637 74.7252 2.98689L74.6249 41.5351L73.8165 42.3364L50.3788 42.5031C48.7523 42.2018 49.1889 39.6185 50.3788 39.6185H72.2061V4.3619H64.4453L64.303 5.65677C64.0573 6.00613 63.6854 5.93562 63.3297 5.98049C61.6741 6.18883 53.7839 6.25293 52.319 5.96767C52.0604 5.91639 51.8114 5.91318 51.6529 5.65998L51.5106 4.3651H44.5582L44.0732 4.84587V19.4293V19.4261Z" fill="#063439"/>
<path d="M10.3579 30.7209C16.6701 29.6568 18.8495 37.9837 13.5754 40.3171C6.47751 43.4549 3.39582 31.894 10.3579 30.7209Z" fill="#063439"/>
<path d="M41.5989 32.0375C46.5917 27.39 53.3436 35.1304 48.2861 39.467C43.2287 43.8035 37.075 36.249 41.5989 32.0375Z" fill="#063439"/>
<path d="M67.9527 11.4582L67.8396 13.3396C66.5784 14.5544 65.1136 13.6409 63.6487 13.6409C61.2784 13.6409 49.731 14.6217 48.6736 13.58C48.2435 13.1537 48.1012 12.0319 48.5636 11.5447C48.8805 11.1569 49.2556 11.1377 49.7116 11.08C53.4012 10.5928 62.3294 10.8011 66.2324 11.08C66.8307 11.1217 67.4127 11.1826 67.9495 11.4614L67.9527 11.4582Z" fill="#063439"/>
<path d="M49.0859 20.3883L48.6526 19.8563C48.4489 19.1319 48.4327 17.8242 49.4093 17.8242H67.5178C68.2616 17.8242 68.6076 20.3883 67.5178 20.3883H49.0859Z" fill="#063439"/>
<path d="M60.936 27.0703L60.6094 25.4229C61.0459 24.003 67.3484 24.4325 67.8722 24.8427C68.3961 25.253 68.603 26.5607 68.0145 26.9709C66.7437 27.8556 62.5916 26.8139 60.9392 27.0735L60.936 27.0703Z" fill="#063439"/>
</svg>
