<svg width="56" height="57" viewBox="0 0 56 57" fill="none" xmlns="http://www.w3.org/2000/svg">
<path d="M36.7522 38.1444L18.0584 38.1858C17.6357 38.0882 17.5529 36.4235 17.3341 35.8942C14.3456 28.6557 4.7238 30.6427 4.2538 38.1592C2.50384 38.446 0.561743 37.4052 0.195197 35.5926C-0.0767556 34.2442 -0.0531075 28.5433 0.195197 27.1536C0.52627 25.3144 2.00723 25.542 3.08322 24.4243C6.14565 21.2457 5.74363 17.1001 11.7916 16.5767C15.7881 16.2308 22.8619 16.2721 26.8909 16.5767C29.6696 16.7837 30.7722 17.5673 32.9153 19.1256C34.9815 20.6306 38.6145 24.5249 40.8462 25.0896C45.0556 26.1571 50.4208 25.2109 53.6399 28.8508C56.859 32.4908 56.3269 40.3118 50.0779 38.032C49.6108 35.1195 48.4432 32.6682 45.4369 31.7338C40.8758 30.3174 37.1542 33.6765 36.7551 38.1414L36.7522 38.1444ZM18.1589 18.9541H11.8034C9.28493 18.9541 6.50923 22.9991 5.74363 25.1636H18.1589V18.9541ZM35.8949 25.1636C34.3874 23.5136 29.3119 18.9541 27.1747 18.9541H20.5237V25.1636H35.8949Z" fill="#063439"/>
<path d="M44.4649 8.01325C44.2402 6.10013 45.9192 5.00607 47.0839 6.74769L45.5291 12.1795C44.187 12.5284 39.3687 13.0518 38.9815 11.2895C38.5233 9.20192 41.7986 10.2842 42.6913 9.93524C37.3793 2.1497 27.1515 -0.0798022 19.6344 6.0883C18.8274 6.75065 15.9217 10.2428 15.5817 10.3374C14.8043 10.5532 14.154 10.1156 14.0121 9.33203C13.8436 7.55788 18.721 3.48031 20.2522 2.56663C28.8365 -2.54586 38.6741 0.343035 44.4649 8.01325Z" fill="#063439"/>
<path d="M20.1548 47.565C19.5577 48.1563 17.8018 47.8666 16.9771 47.9346C22.3925 55.1228 32.2213 56.6722 39.4191 51.0127C40.572 50.1079 43.0048 46.536 44.3468 47.6093C45.881 48.8364 42.0677 52.1452 41.0627 52.9524C33.2086 59.2506 21.553 57.8254 15.3513 50.0074C14.5561 50.7673 14.9788 52.1068 13.5777 52.1008C11.6799 52.0949 12.6377 49.8861 12.9215 48.7536C13.2407 47.4822 13.5274 45.3709 15.0705 45.2822C16.312 45.9387 20.1341 44.9156 20.48 46.3645C20.5302 46.737 20.412 47.3048 20.1519 47.562L20.1548 47.565Z" fill="#063439"/>
<path d="M10.4011 33.212C15.7752 32.4225 17.9863 40.1725 13.0379 42.3695C6.10605 45.4477 3.26237 34.2617 10.4011 33.212Z" fill="#063439"/>
<path d="M42.6195 33.2174C49.2853 32.1647 50.1307 42.786 43.4206 42.9161C37.8249 43.0255 37.0652 34.0956 42.6195 33.2174Z" fill="#063439"/>
</svg>
