<svg width="87" height="119" viewBox="0 0 87 119" fill="none" xmlns="http://www.w3.org/2000/svg">
<g clip-path="url(#clip0_300_2108)">
<path d="M69.2227 9.79476C78.6586 9.63157 83.6629 20.657 77.6697 27.8924C71.6765 35.1278 62.413 42.1471 55.9277 49.6031C50.1208 56.2777 50.9211 64.1474 56.6176 70.53C61.3643 75.8485 67.1897 80.6384 72.0284 85.9224L60.7457 97.1662C58.876 98.2166 52.754 97.0674 50.3047 97.534C49.5021 97.688 48.5546 99.4417 48.0303 99.352L17.1673 68.5672C17.0132 68.3948 17.0753 68.2891 17.1673 68.1121C17.4755 67.5145 20.4744 65.1104 20.4767 64.7794L3.53427 38.0835C1.83244 34.7393 6.37449 31.6847 8.93184 30.4459C14.6629 27.6717 21.2724 27.9521 26.7091 31.2412C30.138 33.3166 32.47 36.7091 35.5494 39.1362L62.3693 12.3736C64.223 10.8428 66.8079 9.83843 69.2204 9.79706L69.2227 9.79476Z" fill="white"/>
<path d="M8.72487 72.0723C9.88396 71.831 11.1304 71.9965 12.0135 72.817L46.3745 107.199C47.2024 108.497 47.522 109.771 46.701 111.173C46.3216 111.819 40.7561 117.385 40.0501 117.857C38.7093 118.751 36.9385 118.741 35.692 117.647L1.14252 82.9921C0.280109 81.8429 0.307706 80.3581 1.09423 79.1537C1.69447 78.2344 6.4159 73.5755 7.4025 72.817C7.77967 72.5274 8.25802 72.1689 8.72487 72.0723Z" fill="white"/>
<path d="M72.7171 42.5996L85.3291 62.0625C86.4859 64.4781 86.8217 67.1029 86.1823 69.7277C85.0508 74.3842 79.9591 77.5192 76.9441 80.9668C71.3281 75.8552 66.1122 70.208 60.6456 64.8964C58.2309 62.0326 58.0285 57.8955 60.3099 54.9007L72.7195 42.5996H72.7171Z" fill="white"/>
<path d="M11.2576 6.79781C12.1798 6.65301 13.0514 6.81849 13.8356 7.32874C14.4359 7.71947 19.8127 13.0816 20.1623 13.647C22.0872 16.7591 18.6399 20.4204 15.2937 18.5128C14.5371 18.083 9.43156 12.9759 8.96011 12.2014C7.64924 10.0477 8.76463 7.19084 11.2599 6.79551L11.2576 6.79781Z" fill="white"/>
<path d="M47.8254 6.79769C50.7048 6.34491 52.9861 9.30295 51.6086 11.9622C51.3464 12.4656 45.4521 18.4207 44.9806 18.6689C41.6299 20.4318 38.1388 16.4188 40.6341 13.1758C41.4666 12.0932 45.1991 8.33303 46.2685 7.54467C46.7492 7.19072 47.2252 6.89423 47.8254 6.79999V6.79769Z" fill="white"/>
<path d="M32.6262 1.3066C32.7986 1.4583 33.4449 2.37766 33.5208 2.59601C34.0497 4.10376 34.0359 9.38779 33.5599 10.93C32.4905 14.3891 27.4655 14.0122 26.7778 10.714C26.564 9.68888 26.5686 4.0371 26.7778 3.00512C27.2769 0.552725 30.8323 -0.270103 32.6262 1.3089V1.3066Z" fill="white"/>
</g>
<defs>
<clipPath id="clip0_300_2108">
<rect width="86" height="118" fill="white" transform="translate(0.5 0.5)"/>
</clipPath>
</defs>
</svg>
